<mxfile host="app.diagrams.net" modified="2022-11-13T22:51:52.479Z" agent="5.0 (Windows NT 10.0; Win64; x64) AppleWebKit/537.36 (KHTML, like Gecko) Chrome/107.0.0.0 Safari/537.36" etag="OuFr4oEPRpKIECrBCiqT" version="20.5.1" type="github">
  <diagram name="Page-1" id="c7488fd3-1785-93aa-aadb-54a6760d102a">
    <mxGraphModel dx="1178" dy="637" grid="1" gridSize="10" guides="1" tooltips="1" connect="1" arrows="1" fold="1" page="1" pageScale="1" pageWidth="1100" pageHeight="850" background="none" math="0" shadow="0">
      <root>
        <mxCell id="0" />
        <mxCell id="1" parent="0" />
        <mxCell id="3v8afrBGPk1vFmGt0nWK-3" style="edgeStyle=orthogonalEdgeStyle;rounded=0;html=1;labelBackgroundColor=none;startArrow=none;startFill=0;startSize=5;endArrow=classicThin;endFill=1;endSize=5;jettySize=auto;orthogonalLoop=1;strokeWidth=1;fontFamily=Verdana;fontSize=8" edge="1" parent="1" source="3v8afrBGPk1vFmGt0nWK-4" target="3v8afrBGPk1vFmGt0nWK-5">
          <mxGeometry relative="1" as="geometry" />
        </mxCell>
        <mxCell id="3v8afrBGPk1vFmGt0nWK-4" value="cron" style="ellipse;whiteSpace=wrap;html=1;rounded=0;shadow=0;labelBackgroundColor=none;strokeWidth=1;fontFamily=Verdana;fontSize=8;align=center;" vertex="1" parent="1">
          <mxGeometry x="200" y="53.5" width="30" height="30" as="geometry" />
        </mxCell>
        <mxCell id="3v8afrBGPk1vFmGt0nWK-10" style="edgeStyle=orthogonalEdgeStyle;rounded=0;orthogonalLoop=1;jettySize=auto;html=1;fontSize=9;startArrow=none;" edge="1" parent="1" source="3v8afrBGPk1vFmGt0nWK-15" target="3v8afrBGPk1vFmGt0nWK-11">
          <mxGeometry relative="1" as="geometry">
            <mxPoint x="320" y="150" as="targetPoint" />
          </mxGeometry>
        </mxCell>
        <mxCell id="3v8afrBGPk1vFmGt0nWK-5" value="Student Attendance" style="rounded=1;whiteSpace=wrap;html=1;shadow=0;labelBackgroundColor=none;strokeWidth=1;fontFamily=Verdana;fontSize=8;align=center;" vertex="1" parent="1">
          <mxGeometry x="280" y="50" width="80" height="37" as="geometry" />
        </mxCell>
        <mxCell id="3v8afrBGPk1vFmGt0nWK-9" value="&lt;font style=&quot;font-size: 9px;&quot;&gt;attendances&lt;/font&gt;" style="shape=cylinder3;whiteSpace=wrap;html=1;boundedLbl=1;backgroundOutline=1;size=15;" vertex="1" parent="1">
          <mxGeometry x="450" y="29.880000000000003" width="50" height="77.25" as="geometry" />
        </mxCell>
        <mxCell id="3v8afrBGPk1vFmGt0nWK-20" value="" style="edgeStyle=orthogonalEdgeStyle;rounded=0;orthogonalLoop=1;jettySize=auto;html=1;fontSize=9;" edge="1" parent="1" source="3v8afrBGPk1vFmGt0nWK-11" target="3v8afrBGPk1vFmGt0nWK-19">
          <mxGeometry relative="1" as="geometry" />
        </mxCell>
        <mxCell id="3v8afrBGPk1vFmGt0nWK-11" value="End Attendance&lt;br&gt;" style="rounded=1;whiteSpace=wrap;html=1;shadow=0;labelBackgroundColor=none;strokeWidth=1;fontFamily=Verdana;fontSize=8;align=center;" vertex="1" parent="1">
          <mxGeometry x="277.5" y="270" width="85" height="40" as="geometry" />
        </mxCell>
        <mxCell id="3v8afrBGPk1vFmGt0nWK-17" style="edgeStyle=orthogonalEdgeStyle;rounded=0;orthogonalLoop=1;jettySize=auto;html=1;fontSize=9;" edge="1" parent="1" source="3v8afrBGPk1vFmGt0nWK-15" target="3v8afrBGPk1vFmGt0nWK-18">
          <mxGeometry relative="1" as="geometry">
            <mxPoint x="420" y="150" as="targetPoint" />
          </mxGeometry>
        </mxCell>
        <mxCell id="3v8afrBGPk1vFmGt0nWK-15" value="1h: Reactions" style="rhombus;whiteSpace=wrap;html=1;fontSize=9;" vertex="1" parent="1">
          <mxGeometry x="280" y="140" width="80" height="80" as="geometry" />
        </mxCell>
        <mxCell id="3v8afrBGPk1vFmGt0nWK-16" value="" style="edgeStyle=orthogonalEdgeStyle;rounded=0;orthogonalLoop=1;jettySize=auto;html=1;fontSize=9;endArrow=none;" edge="1" parent="1" source="3v8afrBGPk1vFmGt0nWK-5" target="3v8afrBGPk1vFmGt0nWK-15">
          <mxGeometry relative="1" as="geometry">
            <mxPoint x="320" y="243" as="targetPoint" />
            <mxPoint x="320" y="97" as="sourcePoint" />
          </mxGeometry>
        </mxCell>
        <mxCell id="3v8afrBGPk1vFmGt0nWK-23" style="rounded=0;orthogonalLoop=1;jettySize=auto;html=1;entryX=0.411;entryY=0.039;entryDx=0;entryDy=0;entryPerimeter=0;fontSize=9;edgeStyle=orthogonalEdgeStyle;startArrow=classic;startFill=1;endArrow=none;endFill=0;" edge="1" parent="1" source="3v8afrBGPk1vFmGt0nWK-18" target="3v8afrBGPk1vFmGt0nWK-19">
          <mxGeometry relative="1" as="geometry" />
        </mxCell>
        <mxCell id="3v8afrBGPk1vFmGt0nWK-18" value="&lt;font style=&quot;font-size: 9px;&quot;&gt;absences&lt;/font&gt;" style="shape=cylinder3;whiteSpace=wrap;html=1;boundedLbl=1;backgroundOutline=1;size=15;" vertex="1" parent="1">
          <mxGeometry x="450" y="141.38" width="50" height="77.25" as="geometry" />
        </mxCell>
        <mxCell id="3v8afrBGPk1vFmGt0nWK-19" value="check reactions&lt;br&gt;(via &lt;i&gt;&lt;u&gt;*message-id&lt;/u&gt;&lt;/i&gt;)" style="rounded=1;whiteSpace=wrap;html=1;shadow=0;labelBackgroundColor=none;strokeWidth=1;fontFamily=Verdana;fontSize=8;align=center;" vertex="1" parent="1">
          <mxGeometry x="440" y="270" width="85" height="40" as="geometry" />
        </mxCell>
        <mxCell id="3v8afrBGPk1vFmGt0nWK-26" value="" style="group" vertex="1" connectable="0" parent="1">
          <mxGeometry x="525" y="40" width="75" height="250" as="geometry" />
        </mxCell>
        <mxCell id="3v8afrBGPk1vFmGt0nWK-22" style="edgeStyle=orthogonalEdgeStyle;rounded=0;orthogonalLoop=1;jettySize=auto;html=1;entryX=1;entryY=0.5;entryDx=0;entryDy=0;entryPerimeter=0;fontSize=9;" edge="1" parent="3v8afrBGPk1vFmGt0nWK-26" source="3v8afrBGPk1vFmGt0nWK-19" target="3v8afrBGPk1vFmGt0nWK-9">
          <mxGeometry relative="1" as="geometry">
            <Array as="points">
              <mxPoint x="75" y="250" />
              <mxPoint x="75" y="28" />
            </Array>
          </mxGeometry>
        </mxCell>
        <mxCell id="3v8afrBGPk1vFmGt0nWK-25" value="&lt;font style=&quot;font-size: 8px;&quot;&gt;&quot;checked: true&quot;&lt;/font&gt;" style="text;html=1;strokeColor=none;fillColor=none;align=center;verticalAlign=middle;whiteSpace=wrap;rounded=0;fontSize=9;" vertex="1" parent="3v8afrBGPk1vFmGt0nWK-26">
          <mxGeometry width="60" height="30" as="geometry" />
        </mxCell>
        <mxCell id="3v8afrBGPk1vFmGt0nWK-7" value="" style="edgeStyle=orthogonalEdgeStyle;rounded=0;orthogonalLoop=1;jettySize=auto;html=1;" edge="1" parent="1" source="3v8afrBGPk1vFmGt0nWK-5" target="3v8afrBGPk1vFmGt0nWK-9">
          <mxGeometry relative="1" as="geometry">
            <mxPoint x="420" y="78" as="targetPoint" />
          </mxGeometry>
        </mxCell>
        <mxCell id="3v8afrBGPk1vFmGt0nWK-27" value="&lt;font style=&quot;font-size: 7px;&quot;&gt;- timestamp&lt;br&gt;- &lt;i&gt;&lt;u&gt;message-id*&lt;/u&gt;&lt;/i&gt;&lt;br&gt;- checked&lt;br&gt;&lt;/font&gt;" style="text;html=1;strokeColor=none;fillColor=none;align=center;verticalAlign=middle;whiteSpace=wrap;rounded=0;fontSize=9;" vertex="1" parent="1">
          <mxGeometry x="370" y="36" width="60" height="30" as="geometry" />
        </mxCell>
      </root>
    </mxGraphModel>
  </diagram>
</mxfile>
